<?xml version="1.0" encoding="UTF-8"?>
<svg xmlns="http://www.w3.org/2000/svg" xmlns:xlink="http://www.w3.org/1999/xlink" width="4000" height="4000" viewBox="0 0 4000 4000">
<defs>
<clipPath id="clip-0">
<path clip-rule="nonzero" d="M 1176 984 L 2778 984 L 2778 2422 L 1176 2422 Z M 1176 984 "/>
</clipPath>
<clipPath id="clip-1">
<path clip-rule="evenodd" d="M 1213.648438 2175.21875 L 1271.351562 2164.039062 L 1379.300781 2141.671875 C 1381.160156 2149.128906 1383.019531 2156.578125 1384.878906 2164.039062 C 1388.601562 2171.5 1390.460938 2178.949219 1392.320312 2186.410156 L 1286.238281 2221.828125 L 1235.988281 2238.601562 C 1228.539062 2218.101562 1221.101562 2195.730469 1213.648438 2175.21875 Z M 1176.429688 1964.578125 L 1252.738281 1970.171875 L 1364.410156 1975.769531 C 1364.410156 1983.21875 1364.410156 1992.539062 1364.410156 2000 C 1364.410156 2007.460938 1364.410156 2016.78125 1364.410156 2024.230469 L 1252.738281 2029.828125 L 1183.871094 2033.550781 C 1180.148438 2011.179688 1176.429688 1988.820312 1176.429688 1964.578125 Z M 1187.601562 1744.621094 L 1286.238281 1778.171875 L 1392.320312 1813.589844 C 1390.460938 1821.050781 1388.601562 1828.5 1384.878906 1835.960938 C 1383.019531 1843.421875 1381.160156 1850.871094 1379.300781 1858.328125 L 1271.351562 1835.960938 L 1178.289062 1817.320312 C 1180.148438 1793.089844 1183.871094 1768.851562 1187.601562 1744.621094 Z M 1254.601562 1526.519531 L 1368.128906 1601.078125 L 1461.191406 1662.601562 C 1457.460938 1668.191406 1453.738281 1675.648438 1448.160156 1683.101562 C 1444.441406 1690.558594 1440.71875 1696.148438 1436.988281 1703.609375 L 1338.351562 1653.28125 L 1226.679688 1597.359375 C 1234.121094 1573.121094 1243.429688 1548.890625 1254.601562 1526.519531 Z M 1379.300781 1323.328125 L 1492.828125 1451.960938 L 1567.269531 1533.980469 C 1561.691406 1539.570312 1556.109375 1545.160156 1550.53125 1550.75 C 1544.941406 1556.351562 1539.359375 1563.800781 1533.769531 1569.390625 L 1450.019531 1494.828125 L 1330.910156 1388.578125 C 1345.789062 1366.210938 1360.679688 1345.699219 1379.300781 1323.328125 Z M 1557.96875 1153.699219 L 1651.03125 1338.25 L 1701.28125 1438.910156 C 1695.699219 1442.640625 1688.25 1446.359375 1680.808594 1450.089844 C 1673.359375 1453.820312 1667.78125 1459.410156 1660.328125 1463.140625 L 1598.921875 1369.941406 L 1490.96875 1207.761719 C 1511.441406 1189.121094 1535.628906 1170.480469 1557.96875 1153.699219 Z M 1785.03125 1034.398438 L 1833.421875 1271.140625 L 1857.621094 1381.121094 C 1848.308594 1382.980469 1840.871094 1384.851562 1833.421875 1386.710938 C 1825.980469 1388.578125 1818.53125 1392.308594 1811.089844 1394.171875 L 1775.730469 1287.921875 L 1701.28125 1069.820312 C 1727.339844 1056.769531 1755.25 1045.578125 1785.03125 1034.398438 Z M 2043.738281 984.070312 L 2026.988281 1254.359375 L 2021.398438 1366.210938 C 2013.960938 1366.210938 2006.511719 1366.210938 1997.210938 1366.210938 C 1989.761719 1366.210938 1982.320312 1366.210938 1973.011719 1366.210938 L 1967.429688 1254.359375 L 1948.820312 993.390625 C 1980.460938 987.800781 2012.101562 984.070312 2043.738281 984.070312 Z M 2313.609375 1008.300781 L 2218.691406 1287.921875 L 2185.191406 1394.171875 C 2177.738281 1392.308594 2168.441406 1388.578125 2160.988281 1386.710938 C 2153.550781 1384.851562 2146.101562 1382.980469 2138.660156 1381.121094 L 2160.988281 1271.140625 L 2218.691406 989.660156 C 2250.328125 995.25 2281.96875 1000.839844 2313.609375 1008.300781 Z M 2566.730469 1110.828125 L 2395.5 1369.941406 L 2334.078125 1463.140625 C 2328.5 1459.410156 2321.050781 1453.820312 2313.609375 1450.089844 C 2308.019531 1446.359375 2300.578125 1442.640625 2293.128906 1438.910156 L 2343.390625 1338.25 L 2479.25 1066.089844 C 2509.03125 1079.140625 2538.808594 1094.050781 2566.730469 1110.828125 Z M 2777.039062 1286.050781 L 2546.261719 1494.828125 L 2462.5 1569.390625 C 2456.921875 1563.800781 2451.328125 1556.351562 2445.75 1550.75 C 2440.171875 1545.160156 2434.578125 1539.570312 2429 1533.980469 L 2503.449219 1451.960938 L 2710.039062 1218.941406 C 2723.070312 1230.128906 2734.230469 1239.449219 2745.398438 1252.5 C 2756.570312 1263.679688 2767.730469 1274.871094 2777.039062 1286.050781 Z M 1297.398438 2367.230469 L 1338.351562 2346.71875 L 1436.988281 2296.390625 C 1440.71875 2303.851562 1444.441406 2309.441406 1448.160156 2316.898438 C 1453.738281 2324.351562 1457.460938 2331.808594 1461.191406 2337.398438 L 1368.128906 2398.921875 L 1332.769531 2421.289062 C 1319.738281 2404.511719 1308.570312 2385.871094 1297.398438 2367.230469 "/>
</clipPath>

<clipPath id="clip-2">
<path clip-rule="nonzero" d="M 1221 1576 L 2824 1576 L 2824 3016 L 1221 3016 Z M 1221 1576 "/>
</clipPath>
<clipPath id="clip-3">
<path clip-rule="evenodd" d="M 2784.488281 1822.910156 L 2728.648438 1834.101562 L 2618.839844 1856.460938 C 2616.980469 1849.011719 2615.121094 1841.550781 2613.261719 1834.101562 C 2611.398438 1826.640625 2607.671875 1819.179688 2605.808594 1811.730469 L 2711.898438 1776.308594 L 2762.148438 1759.53125 C 2769.601562 1780.039062 2777.039062 1802.410156 2784.488281 1822.910156 Z M 2823.570312 2033.550781 L 2745.398438 2027.960938 L 2633.730469 2022.371094 C 2633.730469 2014.910156 2633.730469 2005.589844 2633.730469 1998.140625 C 2633.730469 1990.679688 2633.730469 1981.359375 2633.730469 1973.898438 L 2745.398438 1968.308594 L 2816.128906 1964.578125 C 2817.988281 1986.949219 2821.710938 2011.179688 2823.570312 2033.550781 Z M 2810.539062 2253.519531 L 2711.898438 2219.960938 L 2605.808594 2184.550781 C 2607.671875 2177.089844 2611.398438 2169.628906 2613.261719 2162.179688 C 2615.121094 2154.71875 2616.980469 2147.261719 2618.839844 2139.808594 L 2728.648438 2162.179688 L 2819.851562 2180.820312 C 2817.988281 2205.050781 2814.269531 2229.28125 2810.539062 2253.519531 Z M 2743.539062 2471.621094 L 2630.011719 2397.050781 L 2536.949219 2335.539062 C 2540.671875 2329.949219 2546.261719 2322.488281 2549.980469 2315.03125 C 2553.699219 2307.578125 2557.421875 2301.980469 2561.140625 2294.53125 L 2661.648438 2344.859375 L 2773.320312 2400.78125 C 2764.011719 2425.011719 2754.710938 2449.25 2743.539062 2471.621094 Z M 2620.699219 2674.800781 L 2505.308594 2546.179688 L 2430.859375 2464.160156 C 2438.308594 2458.570312 2443.890625 2452.980469 2449.46875 2447.378906 C 2455.058594 2441.789062 2460.640625 2436.199219 2466.21875 2428.738281 L 2548.121094 2503.308594 L 2669.089844 2609.558594 C 2652.339844 2631.929688 2637.449219 2652.429688 2620.699219 2674.800781 Z M 2440.171875 2844.441406 L 2347.109375 2659.890625 L 2296.859375 2559.230469 C 2304.300781 2555.5 2309.890625 2551.769531 2317.328125 2548.039062 C 2324.769531 2544.320312 2332.21875 2538.71875 2337.800781 2535 L 2399.21875 2628.199219 L 2509.03125 2790.378906 C 2486.699219 2809.019531 2464.359375 2827.660156 2440.171875 2844.441406 Z M 2213.101562 2963.738281 L 2164.710938 2727 L 2142.378906 2617.019531 C 2149.820312 2615.148438 2157.269531 2613.289062 2164.710938 2611.421875 C 2172.160156 2609.558594 2179.601562 2605.828125 2187.050781 2603.96875 L 2222.410156 2710.21875 L 2298.71875 2928.320312 C 2270.800781 2941.371094 2242.878906 2952.550781 2213.101562 2963.738281 Z M 1956.261719 3015.929688 L 1971.148438 2743.769531 L 1976.730469 2631.929688 C 1984.179688 2631.929688 1993.488281 2631.929688 2000.929688 2631.929688 C 2008.371094 2631.929688 2017.679688 2631.929688 2025.128906 2631.929688 L 2030.710938 2743.769531 L 2049.320312 3004.75 C 2017.679688 3010.339844 1986.039062 3014.070312 1956.261719 3015.929688 Z M 1684.53125 2989.828125 L 1779.449219 2710.21875 L 1814.808594 2603.96875 C 1822.261719 2605.828125 1829.699219 2609.558594 1837.148438 2611.421875 C 1844.589844 2613.289062 1852.03125 2615.148438 1859.480469 2617.019531 L 1837.148438 2727 L 1781.308594 3008.480469 C 1747.808594 3004.75 1716.171875 2997.289062 1684.53125 2989.828125 Z M 1433.269531 2887.308594 L 1602.640625 2628.199219 L 1664.058594 2535 C 1669.640625 2538.71875 1677.078125 2544.320312 1684.53125 2548.039062 C 1691.96875 2551.769531 1697.558594 2555.5 1705 2559.230469 L 1654.75 2659.890625 L 1518.878906 2932.050781 C 1489.109375 2919 1461.191406 2904.089844 1433.269531 2887.308594 Z M 1221.101562 2712.078125 L 1453.738281 2503.308594 L 1535.628906 2428.738281 C 1541.21875 2436.199219 1546.800781 2441.789062 1552.390625 2447.378906 C 1557.96875 2452.980469 1563.550781 2458.570312 1571 2464.160156 L 1496.550781 2546.179688 L 1288.101562 2779.191406 C 1276.929688 2769.871094 1263.898438 2758.691406 1252.738281 2745.640625 C 1241.570312 2734.449219 1230.398438 2723.269531 1221.101562 2712.078125 Z M 2700.730469 1630.910156 L 2661.648438 1651.410156 L 2561.140625 1701.738281 C 2557.421875 1694.289062 2553.699219 1688.699219 2549.980469 1681.238281 C 2546.261719 1673.78125 2540.671875 1666.328125 2536.949219 1660.730469 L 2630.011719 1599.21875 L 2665.371094 1576.851562 C 2678.398438 1593.628906 2689.570312 1612.269531 2700.730469 1630.910156 "/>
</clipPath>

</defs>
<g clip-path="url(#clip-0)">
<g clip-path="url(#clip-1)">
<path fill-rule="nonzero" fill="#ffffff" d="M 1176.429688 984.070312 L 1176.429688 2421.289062 L 2777.039062 2421.289062 L 2777.039062 984.070312 Z M 1176.429688 984.070312 "/>
</g>
</g>
<g clip-path="url(#clip-2)">
<g clip-path="url(#clip-3)">
<path fill-rule="nonzero" fill="#ffffff" d="M 1221.101562 1576.851562 L 1221.101562 3015.929688 L 2823.570312 3015.929688 L 2823.570312 1576.851562 Z M 1221.101562 1576.851562 "/>
</g>
</g>
</svg>
